<svg width="80" height="80" viewBox="0 0 80 80" fill="none" xmlns="http://www.w3.org/2000/svg">
<circle cx="40" cy="40" r="40" fill="#FFE999"/>
<rect x="45" y="29" width="3" height="5" rx="1.5" fill="#676767"/>
<rect x="33" y="29" width="3" height="5" rx="1.5" fill="#676767"/>
<mask id="path-4-inside-1_33_105" fill="white">
<path fill-rule="evenodd" clip-rule="evenodd" d="M45 40H37V44.5V45H37.0405C37.3178 46.6961 38.9849 48 41 48C43.0151 48 44.6822 46.6961 44.9595 45H45V44.5V40Z"/>
</mask>
<path fill-rule="evenodd" clip-rule="evenodd" d="M45 40H37V44.5V45H37.0405C37.3178 46.6961 38.9849 48 41 48C43.0151 48 44.6822 46.6961 44.9595 45H45V44.5V40Z" fill="#DA8080"/>
<path d="M37 40V39.5H36.5V40H37ZM45 40H45.5V39.5H45V40ZM37 45H36.5V45.5H37V45ZM37.0405 45L37.534 44.9193L37.4654 44.5H37.0405V45ZM44.9595 45V44.5H44.5346L44.466 44.9193L44.9595 45ZM45 45V45.5H45.5V45H45ZM37 40.5H45V39.5H37V40.5ZM37.5 44.5V40H36.5V44.5H37.5ZM37.5 45V44.5H36.5V45H37.5ZM37.0405 44.5H37V45.5H37.0405V44.5ZM41 47.5C39.1836 47.5 37.7647 46.3307 37.534 44.9193L36.5471 45.0807C36.8709 47.0616 38.7862 48.5 41 48.5V47.5ZM44.466 44.9193C44.2353 46.3307 42.8164 47.5 41 47.5V48.5C43.2138 48.5 45.1291 47.0616 45.4529 45.0807L44.466 44.9193ZM45 44.5H44.9595V45.5H45V44.5ZM44.5 44.5V45H45.5V44.5H44.5ZM44.5 40V44.5H45.5V40H44.5Z" fill="#F2D97E" mask="url(#path-4-inside-1_33_105)"/>
</svg>
